<svg width="200" height="80" viewBox="0 0 200 80" fill="none" xmlns="http://www.w3.org/2000/svg">
<path d="M9.59344 74.2529V63.5229H11.9372L15.1818 71.2719L18.4484 63.5229H20.7629V74.2529H18.9318V68.9501L18.9904 65.9106L18.7194 66.7162L15.9728 73.5204H14.2736L11.5856 66.6796L11.3146 65.874L11.3805 68.9794V74.2529H9.59344ZM26.0846 74.2529V63.5229H32.5886L32.508 65.0976H28.0695V67.8661H32.2883V69.4409H28.0695V72.6708H32.6691L32.6032 74.2529H26.0846ZM39.5143 72.6635H40.9352C42.1608 72.6635 43.0934 72.3437 43.7331 71.704C44.3727 71.0595 44.6926 70.122 44.6926 68.8915C44.6926 67.5732 44.363 66.6161 43.7038 66.0204C43.0446 65.4199 42.051 65.1196 40.7228 65.1196H39.5143V72.6635ZM37.5295 74.2529V63.5229H40.6349C41.5724 63.5229 42.4123 63.6303 43.1545 63.8452C43.8967 64.06 44.5339 64.3847 45.0661 64.8193C45.6032 65.249 46.0134 65.8056 46.2966 66.4892C46.5846 67.1679 46.7287 67.954 46.7287 68.8476C46.7287 70.581 46.2062 71.9164 45.1613 72.8539C44.1164 73.7866 42.6686 74.2529 40.818 74.2529H37.5295ZM51.6623 74.2529V63.5229H53.6471V74.2529H51.6623ZM63.7004 74.4067C62.133 74.4067 60.8903 73.9135 59.9723 72.9272C59.0544 71.9409 58.5954 70.5786 58.5954 68.8403C58.5954 67.1899 59.0739 65.8666 60.0309 64.8705C60.9929 63.8696 62.2502 63.3691 63.8029 63.3691C65.0578 63.3691 66.1198 63.6596 66.9889 64.2407L66.3664 65.7421C65.5314 65.2294 64.6916 64.9731 63.8469 64.9731C62.8605 64.9731 62.0793 65.3295 61.5031 66.0424C60.9318 66.7504 60.6462 67.7026 60.6462 68.8989C60.6462 70.1391 60.9221 71.0986 61.4738 71.7773C62.0304 72.456 62.8215 72.7953 63.8469 72.7953C64.7453 72.7953 65.6364 72.5707 66.5202 72.1215L66.7839 73.6743C65.9636 74.1625 64.9357 74.4067 63.7004 74.4067ZM70.3771 74.2529L74.3249 63.5156H76.4855L80.3747 74.2529H78.3386L77.2765 71.2206H73.5192L72.4499 74.2529H70.3771ZM74.0173 69.7411H76.7712C75.8923 66.9238 75.4406 65.4687 75.4162 65.3759L74.0173 69.7411ZM84.444 74.2529V63.5229H86.4289V72.6708H90.9186L90.86 74.2529H84.444Z" fill="white"/>
<path d="M131.113 71.6092V60.8792H137.617L137.536 62.4539H133.098V65.2225H137.317V66.7972H133.098V70.0272H137.697L137.631 71.6092H131.113ZM150.563 75.1102C150.158 74.8172 149.699 74.3338 149.186 73.66C148.678 72.9861 148.263 72.3441 147.941 71.7337C147.687 71.7532 147.489 71.763 147.348 71.763C145.732 71.763 144.455 71.2747 143.517 70.2982C142.585 69.3167 142.118 67.9642 142.118 66.2405C142.118 64.5071 142.587 63.1546 143.525 62.1829C144.462 61.2112 145.739 60.7254 147.355 60.7254C148.971 60.7254 150.246 61.2137 151.178 62.1902C152.111 63.1619 152.577 64.5145 152.577 66.2479C152.577 67.4783 152.331 68.5281 151.838 69.3973C151.344 70.2615 150.646 70.8939 149.743 71.2943C150.49 72.5052 151.188 73.4085 151.838 74.0042L150.563 75.1102ZM144.997 69.1263C145.529 69.805 146.315 70.1443 147.355 70.1443C148.395 70.1443 149.179 69.8074 149.706 69.1336C150.238 68.4549 150.505 67.4979 150.505 66.2625C150.505 65.0125 150.238 64.0433 149.706 63.3548C149.179 62.6663 148.398 62.3221 147.362 62.3221C146.322 62.3221 145.534 62.6688 144.997 63.3621C144.464 64.0506 144.198 65.0174 144.198 66.2625C144.198 67.493 144.464 68.4476 144.997 69.1263ZM161.649 71.763C160.243 71.763 159.176 71.4139 158.448 70.7156C157.721 70.0125 157.357 69.0237 157.357 67.7493V60.8792H159.349V67.5809C159.349 68.4744 159.53 69.1263 159.891 69.5364C160.257 69.9466 160.856 70.1517 161.686 70.1517C162.501 70.1517 163.092 69.9466 163.458 69.5364C163.824 69.1214 164.007 68.4671 164.007 67.5735V60.8792H165.992V67.764C165.992 69.0286 165.621 70.0125 164.879 70.7156C164.137 71.4139 163.06 71.763 161.649 71.763ZM171.263 71.6092V60.8792H173.248V71.6092H171.263ZM178.569 71.6092V60.8499H182.144C182.988 60.8499 183.711 60.9598 184.312 61.1795C184.912 61.3943 185.386 61.7459 185.733 62.2342C186.084 62.7225 186.26 63.3353 186.26 64.0726C186.26 64.5853 186.194 65.0418 186.062 65.4422C185.93 65.8377 185.713 66.199 185.41 66.5262C185.108 66.8484 184.68 67.0975 184.129 67.2733C183.582 67.449 182.92 67.5369 182.144 67.5369C181.48 67.5369 180.94 67.5174 180.525 67.4783V71.6092H178.569ZM181.931 66.1014C182.337 66.1014 182.688 66.0623 182.986 65.9842C183.289 65.9061 183.523 65.806 183.689 65.6839C183.86 65.5618 183.994 65.4105 184.092 65.2298C184.194 65.0491 184.26 64.8758 184.29 64.7098C184.324 64.5389 184.341 64.3484 184.341 64.1385C184.341 63.5477 184.15 63.0984 183.77 62.7908C183.389 62.4832 182.852 62.3294 182.158 62.3294H180.525V66.0867C180.584 66.0965 181.052 66.1014 181.931 66.1014Z" fill="white"/>
<path d="M7.06921 47.1147H80.541C81.3351 47.1147 82.0539 46.645 82.3727 45.9178L93.2347 21.1423C94.0071 19.3805 96.5782 19.6184 97.0143 21.492L107.195 65.2315C107.343 65.867 108.278 65.7595 108.278 65.1071V65.1071C108.278 64.9951 108.312 64.8857 108.376 64.7937L125.595 40.0521C125.969 39.5149 126.582 39.1946 127.237 39.1946H187.069" stroke="#9DD00A" stroke-width="20"/>
<path d="M15 46.267H73.5156C77.3753 46.267 80.9052 44.0907 82.639 40.6423L91.2556 23.5039C92.9358 20.1618 97.9064 20.8981 98.5456 24.5838L105.428 64.2647C105.514 64.7634 106.249 64.7001 106.249 64.194V64.194C106.249 64.1057 106.277 64.0197 106.33 63.9486L119.185 46.4977C122.955 41.3806 128.932 38.3598 135.288 38.3598H181" stroke="white" stroke-width="3"/>
<path d="M43.4493 24.6V18.5H55.8493V6.1H61.9493V18.5H74.3493V24.6H61.9493V37H55.8493V24.6H43.4493Z" fill="#EB5757"/>
<path d="M43.4493 24.6H42.4493V25.6H43.4493V24.6ZM43.4493 18.5V17.5H42.4493V18.5H43.4493ZM55.8493 18.5V19.5H56.8493V18.5H55.8493ZM55.8493 6.1V5.1H54.8493V6.1H55.8493ZM61.9493 6.1H62.9493V5.1H61.9493V6.1ZM61.9493 18.5H60.9493V19.5H61.9493V18.5ZM74.3493 18.5H75.3493V17.5H74.3493V18.5ZM74.3493 24.6V25.6H75.3493V24.6H74.3493ZM61.9493 24.6V23.6H60.9493V24.6H61.9493ZM61.9493 37V38H62.9493V37H61.9493ZM55.8493 37H54.8493V38H55.8493V37ZM55.8493 24.6H56.8493V23.6H55.8493V24.6ZM44.4493 24.6V18.5H42.4493V24.6H44.4493ZM43.4493 19.5H55.8493V17.5H43.4493V19.5ZM56.8493 18.5V6.1H54.8493V18.5H56.8493ZM55.8493 7.1H61.9493V5.1H55.8493V7.1ZM60.9493 6.1V18.5H62.9493V6.1H60.9493ZM61.9493 19.5H74.3493V17.5H61.9493V19.5ZM73.3493 18.5V24.6H75.3493V18.5H73.3493ZM74.3493 23.6H61.9493V25.6H74.3493V23.6ZM60.9493 24.6V37H62.9493V24.6H60.9493ZM61.9493 36H55.8493V38H61.9493V36ZM56.8493 37V24.6H54.8493V37H56.8493ZM55.8493 23.6H43.4493V25.6H55.8493V23.6Z" fill="#EBF4F6"/>
</svg>
