<svg width="340" height="664" viewBox="0 0 340 664" fill="none" xmlns="http://www.w3.org/2000/svg">
<g filter="url(#filter0_d)">
<path d="M0 664V0.904651H265.03C265.03 0.904651 320.832 -9.0968 291.456 37.4099C262.079 83.9166 280.811 112.968 291.456 140.925C327.631 235.938 211.176 327.952 201.915 463.971C192.655 599.991 265.03 664 265.03 664H0Z" fill="#9C6DC0"/>
<path d="M261.58 661.333C262.496 662.274 263.232 662.996 263.759 663.5H0.5V1.40465H265.03H265.074L265.118 1.39681L265.03 0.904651C265.118 1.39681 265.118 1.3968 265.118 1.39676L265.12 1.39648L265.127 1.39526L265.156 1.39023C265.181 1.38577 265.22 1.37912 265.272 1.37053C265.374 1.35336 265.527 1.32846 265.726 1.29785C266.123 1.23662 266.703 1.15258 267.432 1.06191C268.89 0.880536 270.942 0.672883 273.312 0.568103C278.064 0.35806 284.051 0.563846 289.106 2.19315C294.153 3.82002 298.178 6.82875 299.229 12.1823C300.292 17.5908 298.359 25.5454 291.033 37.1429C276.286 60.4889 273.594 79.4967 275.953 96.1933C277.736 108.814 282.415 120.118 286.882 130.91C288.306 134.351 289.708 137.74 290.989 141.103C308.988 188.377 289.04 234.937 263.276 286.849C261.016 291.402 258.712 295.996 256.385 300.634C232.219 348.815 205.648 401.79 201.416 463.937C196.779 532.046 212.581 582.143 229.555 615.221C238.041 631.759 246.819 644.04 253.479 652.19C256.809 656.265 259.609 659.307 261.58 661.333Z" stroke="#F4F3F4"/>
</g>
<defs>
<filter id="filter0_d" x="0" y="0" width="340" height="664" filterUnits="userSpaceOnUse" color-interpolation-filters="sRGB">
<feFlood flood-opacity="0" result="BackgroundImageFix"/>
<feColorMatrix in="SourceAlpha" type="matrix" values="0 0 0 0 0 0 0 0 0 0 0 0 0 0 0 0 0 0 127 0"/>
<feOffset dx="40"/>
<feColorMatrix type="matrix" values="0 0 0 0 0.248906 0 0 0 0 0.7375 0 0 0 0 0.7375 0 0 0 0.73 0"/>
<feBlend mode="normal" in2="BackgroundImageFix" result="effect1_dropShadow"/>
<feBlend mode="normal" in="SourceGraphic" in2="effect1_dropShadow" result="shape"/>
</filter>
</defs>
</svg>
